HIERARCHY
ROOT Hips
{
	OFFSET 0.00000 0.00000 0.00000
	CHANNELS 6 Xposition Yposition Zposition Zrotation Yrotation Xrotation 
	JOINT LHipJoint
	{
		OFFSET 0 0 0
		CHANNELS 3 Zrotation Yrotation Xrotation
		JOINT LeftUpLeg
		{
			OFFSET 1.58161 -1.81893 0.78828
			CHANNELS 3 Zrotation Yrotation Xrotation
			JOINT LeftLeg
			{
				OFFSET 2.53374 -6.96141 0.00000
				CHANNELS 3 Zrotation Yrotation Xrotation
				JOINT LeftFoot
				{
					OFFSET 2.63509 -7.23986 0.00000
					CHANNELS 3 Zrotation Yrotation Xrotation
					JOINT LeftToeBase
					{
						OFFSET 0.14115 -0.38781 2.05350
						CHANNELS 3 Zrotation Yrotation Xrotation
						End Site
						{
							OFFSET 0.00000 -0.00000 1.05543
						}
					}
				}
			}
		}
	}
	JOINT RHipJoint
	{
		OFFSET 0 0 0
		CHANNELS 3 Zrotation Yrotation Xrotation
		JOINT RightUpLeg
		{
			OFFSET -1.11138 -1.81893 0.78828
			CHANNELS 3 Zrotation Yrotation Xrotation
			JOINT RightLeg
			{
				OFFSET -2.58392 -7.09926 0.00000
				CHANNELS 3 Zrotation Yrotation Xrotation
				JOINT RightFoot
				{
					OFFSET -2.66423 -7.31992 0.00000
					CHANNELS 3 Zrotation Yrotation Xrotation
					JOINT RightToeBase
					{
						OFFSET -0.18831 -0.51739 2.12114
						CHANNELS 3 Zrotation Yrotation Xrotation
						End Site
						{
							OFFSET -0.00000 -0.00000 1.09845
						}
					}
				}
			}
		}
	}
	JOINT LowerBack
	{
		OFFSET 0 0 0
		CHANNELS 3 Zrotation Yrotation Xrotation
		JOINT Spine
		{
			OFFSET -0.01511 1.97958 -0.08829
			CHANNELS 3 Zrotation Yrotation Xrotation
			JOINT Spine1
			{
				OFFSET 0.08344 1.97334 -0.04330
				CHANNELS 3 Zrotation Yrotation Xrotation
				JOINT Neck
				{
					OFFSET 0 0 0
					CHANNELS 3 Zrotation Yrotation Xrotation
					JOINT Neck1
					{
						OFFSET 0.00559 1.76246 0.31246
						CHANNELS 3 Zrotation Yrotation Xrotation
						JOINT Head
						{
							OFFSET -0.07011 1.80354 -0.30524
							CHANNELS 3 Zrotation Yrotation Xrotation
							End Site
							{
								OFFSET -0.02385 1.83547 -0.13906
							}
						}
					}
				}
				JOINT LeftShoulder
				{
					OFFSET 0 0 0
					CHANNELS 3 Zrotation Yrotation Xrotation
					JOINT LeftArm
					{
						OFFSET 3.20667 1.30156 -0.60240
						CHANNELS 3 Zrotation Yrotation Xrotation
						JOINT LeftForeArm
						{
							OFFSET 4.95663 -0.00000 0.00000
							CHANNELS 3 Zrotation Yrotation Xrotation
							JOINT LeftHand
							{
								OFFSET 3.38177 -0.00000 0.00000
								CHANNELS 3 Zrotation Yrotation Xrotation
								JOINT LeftFingerBase
								{
									OFFSET 0 0 0
									CHANNELS 3 Zrotation Yrotation Xrotation
									JOINT LeftHandIndex1
									{
										OFFSET 0.66291 -0.00000 0.00000
										CHANNELS 3 Zrotation Yrotation Xrotation
										End Site
										{
											OFFSET 0.53445 -0.00000 0.00000
										}
									}
								}
								JOINT LThumb
								{
									OFFSET 0 0 0
									CHANNELS 3 Zrotation Yrotation Xrotation
									End Site
									{
										OFFSET 0.54261 -0.00000 0.54261
									}
								}
							}
						}
					}
				}
				JOINT RightShoulder
				{
					OFFSET 0 0 0
					CHANNELS 3 Zrotation Yrotation Xrotation
					JOINT RightArm
					{
						OFFSET -3.06877 1.34672 -0.60964
						CHANNELS 3 Zrotation Yrotation Xrotation
						JOINT RightForeArm
						{
							OFFSET -5.08365 -0.00000 0.00000
							CHANNELS 3 Zrotation Yrotation Xrotation
							JOINT RightHand
							{
								OFFSET -3.35984 -0.00000 0.00000
								CHANNELS 3 Zrotation Yrotation Xrotation
								JOINT RightFingerBase
								{
									OFFSET 0 0 0
									CHANNELS 3 Zrotation Yrotation Xrotation
									JOINT RightHandIndex1
									{
										OFFSET -0.82076 -0.00000 0.00000
										CHANNELS 3 Zrotation Yrotation Xrotation
										End Site
										{
											OFFSET -0.66172 -0.00000 0.00000
										}
									}
								}
								JOINT RThumb
								{
									OFFSET 0 0 0
									CHANNELS 3 Zrotation Yrotation Xrotation
									End Site
									{
										OFFSET -0.67182 -0.00000 0.67182
									}
								}
							}
						}
					}
				}
			}
		}
	}
}
MOTION
Frames: 12
Frame Time: .0083333
0.9628 17.9439 -8.8484 0 0 0 0 0 0 -21 0 0 0 0 0 0 0 0 0 0 0 0 0 0 21 0 0 0 0 0 0 0 0 0 0 0 0 0 0 0 0 0 0 0 0 0 0 -16 0 0 21 0 0 11 0 0 0 -8 0 0 0 0 0 0 0 0 0 0 0 0 0 0 0 0 0 0 0 0 8 0 0 0 0 0 0 0 0 0 0 0 0 0 0 0 0 0
0.9628 17.9439 -8.8484 -6.3184 -6.9029 8.1836 0.0000 0.0000 0.0000 -14.1873 -0.8419 -13.5630 2.6898 10.1752 29.5459 1.1873 1.7511 -21.2862 0.2177 -3.0036 -8.2887 0.0000 0.0000 0.0000 24.1787 6.4555 -13.9341 -2.4237 -9.6978 28.0036 -0.7559 -1.6181 -17.0860 -0.0049 -0.4530 1.2448 -1.6677 0.6906 -8.7887 4.2335 0.8889 -0.5123 5.4849 0.3682 4.3086 1.6007 0.7179 -15.5657 -5.9741 3.0351 40.6101 -2.4895 0.6149 17.8136 0.0000 -0.0000 0.0000 -89.7144 -2.6793 30.2630 11.2072 -18.6051 -1.8415 -0.0000 -0.0000 1.3648 10.3326 32.2907 5.5629 -7.1250 0.0000 -0.0000 -25.4573 60.8651 -10.2212 0.0000 -0.0000 0.0000 86.2427 -0.3417 23.2685 -13.6603 22.2470 -2.6982 0.0000 -0.0000 -7.0004 -19.9339 9.6293 -3.4715 7.1250 -0.0000 -0.0000 5.0188 -19.7694 3.0370
0.9658 17.9439 -8.8469 -6.3231 -6.9256 8.1730 0.0000 0.0000 0.0000 -14.1965 -0.8069 -13.5421 2.6862 10.1688 29.5252 1.1887 1.7175 -21.2833 0.2070 -2.9295 -8.0826 0.0000 0.0000 0.0000 24.1726 6.4048 -13.9403 -2.4238 -9.6979 28.0040 -0.7448 -1.6459 -16.9778 -0.0061 -0.5053 1.3886 -1.6390 0.6878 -8.7710 4.2345 0.8821 -0.5045 5.4683 0.3652 4.3080 1.5973 0.7330 -15.6042 -5.9882 3.0677 40.6404 -2.4912 0.6247 17.8444 -0.0000 -0.0000 0.0000 -89.7188 -2.6413 30.2898 11.2371 -18.6507 -1.8510 -0.0000 -0.0000 1.2589 10.3465 32.2210 5.5599 -7.1250 0.0000 -0.0000 -25.3800 60.8064 -10.1523 -0.0000 -0.0000 0.0000 86.2358 -0.2953 23.2668 -13.6358 22.2116 -2.6889 0.0000 -0.0000 -6.9752 -19.8396 9.6504 -3.4612 7.1250 -0.0000 -0.0000 5.0864 -19.7536 3.0800
0.9694 17.9426 -8.8446 -6.2817 -6.9813 8.1479 0.0000 0.0000 0.0000 -14.2672 -0.7062 -13.5331 2.6848 10.1665 29.5175 1.1859 1.7710 -21.2821 0.2480 -3.2046 -8.8489 0.0000 0.0000 0.0000 24.1026 6.3689 -13.9347 -2.4269 -9.7037 28.0224 -0.7228 -1.5715 -16.7029 -0.0290 -1.0990 3.0213 -1.6709 0.6974 -8.8003 4.2379 0.8969 -0.4705 5.4937 0.3703 4.3578 1.5660 0.7469 -15.6319 -5.9863 3.1006 40.6444 -2.4787 0.6331 17.8561 0.0000 0.0000 0.0000 -89.7662 -2.6507 30.2116 11.2789 -18.7144 -1.8644 -0.0000 -0.0000 1.4560 10.0034 32.4449 5.4058 -7.1250 0.0000 -0.0000 -25.9392 60.9230 -10.4659 0.0000 0.0000 0.0000 86.1876 -0.2745 23.3544 -13.6537 22.2375 -2.6957 0.0000 -0.0000 -7.1032 -19.8030 9.6648 -3.4594 7.1250 -0.0000 -0.0000 5.1127 -19.7409 3.0975
0.9700 17.9402 -8.8465 -6.2921 -7.0155 8.1217 0.0000 0.0000 0.0000 -14.2604 -0.6351 -13.5238 2.6849 10.1666 29.5179 1.1776 1.8563 -21.2475 0.2997 -3.5199 -9.7297 0.0000 0.0000 0.0000 24.1087 6.3949 -13.9099 -2.4286 -9.7069 28.0328 -0.7053 -1.5630 -16.5044 -0.0493 -1.4335 3.9423 -1.6975 0.7022 -8.7964 4.2593 0.9043 -0.4436 5.5332 0.3723 4.3824 1.5298 0.7372 -15.6305 -5.9894 3.0987 40.6296 -2.4732 0.6262 17.8466 -0.0000 0.0000 0.0000 -89.8037 -2.6712 30.2104 11.2920 -18.7344 -1.8686 -0.0000 -0.0000 1.5148 9.9755 32.5790 5.4102 -7.1250 0.0000 -0.0000 -26.0915 61.0349 -10.6020 -0.0000 0.0000 0.0000 86.1514 -0.2786 23.4605 -13.6867 22.2851 -2.7082 0.0000 -0.0000 -7.2558 -19.8597 9.6829 -3.4766 7.1250 -0.0000 -0.0000 5.0724 -19.7179 3.0756
0.9700 17.9397 -8.8505 -6.3140 -6.9549 8.1671 0.0000 0.0000 0.0000 -14.2197 -0.6718 -13.5967 2.6863 10.1690 29.5259 1.1752 1.7746 -21.1909 0.2684 -3.3325 -9.2059 0.0000 0.0000 0.0000 24.1358 6.4292 -13.9571 -2.4290 -9.7076 28.0351 -0.7184 -1.5474 -16.6431 -0.0407 -1.3014 3.5785 -1.6985 0.6784 -8.8014 4.2714 0.8721 -0.4469 5.5429 0.3561 4.3850 1.5030 0.7338 -15.6652 -5.9597 3.0907 40.6355 -2.4565 0.6223 17.8574 0.0000 0.0000 0.0000 -89.8181 -2.6817 30.2551 11.2849 -18.7237 -1.8664 -0.0000 -0.0000 1.3582 10.2449 32.3126 5.5183 -7.1250 0.0000 -0.0000 -25.5682 60.8636 -10.2683 0.0000 0.0000 0.0000 86.1467 -0.2139 23.4769 -13.6773 22.2715 -2.7046 0.0000 -0.0000 -7.2250 -19.9314 9.6318 -3.4720 7.1250 -0.0000 -0.0000 5.0207 -19.7669 3.0385
0.9714 17.9407 -8.8518 -6.2888 -6.8824 8.2232 0.0000 0.0000 0.0000 -14.2391 -0.7964 -13.6547 2.6911 10.1773 29.5528 1.1772 1.7401 -21.1938 0.2275 -3.0702 -8.4742 0.0000 0.0000 0.0000 24.1081 6.4140 -14.0189 -2.4263 -9.7026 28.0190 -0.7323 -1.5398 -16.7929 -0.0314 -1.1431 3.1427 -1.7268 0.6373 -8.8488 4.2702 0.8195 -0.4330 5.5530 0.3282 4.4315 1.4872 0.7473 -15.7242 -5.9412 3.1079 40.6070 -2.4408 0.6285 17.8570 -0.0000 0.0000 0.0000 -89.8403 -2.7210 30.2116 11.2559 -18.6794 -1.8570 -0.0000 -0.0000 1.2318 10.5912 31.8327 5.6325 -7.1250 0.0000 -0.0000 -24.7814 60.5178 -9.7239 -0.0000 0.0000 0.0000 86.1171 -0.1037 23.5593 -13.6694 22.2602 -2.7016 0.0000 -0.0000 -7.2089 -19.9745 9.5057 -3.4350 7.1250 -0.0000 -0.0000 4.9885 -19.8971 3.0043
0.9731 17.9419 -8.8514 -6.3153 -6.8665 8.2233 0.0000 0.0000 0.0000 -14.2118 -0.8771 -13.6419 2.6985 10.1902 29.5947 1.1729 1.8327 -21.1967 0.2363 -3.1282 -8.6360 0.0000 0.0000 0.0000 24.1403 6.3902 -14.0024 -2.4200 -9.6910 27.9819 -0.7326 -1.5434 -16.7981 -0.0321 -1.1561 3.1784 -1.7120 0.6068 -8.8259 4.2896 0.7764 -0.4300 5.5594 0.3069 4.4265 1.4928 0.7558 -15.6907 -5.9790 3.1301 40.5442 -2.4521 0.6335 17.8143 0.0000 0.0000 0.0000 -89.8581 -2.6891 30.2032 11.2593 -18.6845 -1.8581 -0.0000 -0.0000 1.0939 10.8360 31.7062 5.7446 -7.1250 0.0000 -0.0000 -24.4172 60.4624 -9.5383 0.0000 0.0000 0.0000 86.0676 -0.0725 23.6942 -13.6668 22.2564 -2.7006 0.0000 -0.0000 -7.2951 -19.9331 9.5312 -3.4364 7.1250 -0.0000 -0.0000 5.0184 -19.8730 3.0251
0.9735 17.9432 -8.8514 -6.4145 -6.8868 8.2585 0.0000 0.0000 0.0000 -14.0958 -0.7918 -13.7299 2.7056 10.2025 29.6350 1.1690 1.7971 -21.1469 0.2634 -3.3016 -9.1197 0.0000 0.0000 0.0000 24.2463 6.4360 -13.9907 -2.4133 -9.6785 27.9417 -0.7338 -1.5252 -16.8027 -0.0331 -1.1751 3.2307 -1.6532 0.6024 -8.8639 4.3439 0.7616 -0.4283 5.5828 0.2995 4.4513 1.4294 0.7490 -15.6430 -5.9638 3.1329 40.5127 -2.4310 0.6274 17.7820 0.0000 0.0000 0.0000 -89.9066 -2.6680 30.2252 11.2889 -18.7297 -1.8676 -0.0000 -0.0000 1.0203 10.8663 31.8485 5.7839 -7.1250 0.0000 -0.0000 -24.5094 60.5974 -9.6563 0.0000 0.0000 0.0000 85.9938 -0.0483 23.8003 -13.6593 22.2455 -2.6978 0.0000 -0.0000 -7.3932 -19.8918 9.6172 -3.4593 7.1250 -0.0000 -0.0000 5.0488 -19.7851 3.0535
0.9739 17.9440 -8.8516 -6.4900 -6.9318 8.3141 0.0000 0.0000 0.0000 -14.0115 -0.6965 -13.8439 2.7123 10.2140 29.6725 1.1787 1.6751 -21.1789 0.2506 -3.2209 -8.8944 0.0000 0.0000 0.0000 24.3174 6.4827 -14.0127 -2.4076 -9.6680 27.9081 -0.7276 -1.5595 -16.7506 -0.0276 -1.0729 2.9493 -1.6098 0.6132 -8.9095 4.3817 0.7698 -0.4398 5.6002 0.3040 4.4640 1.3682 0.7428 -15.6333 -5.9336 3.1330 40.5297 -2.4065 0.6219 17.7875 -0.0000 -0.0000 0.0000 -89.9582 -2.6561 30.1690 11.2975 -18.7428 -1.8704 -0.0000 -0.0000 1.0815 10.8661 31.8176 5.7788 -7.1250 0.0000 -0.0000 -24.4826 60.5695 -9.6286 -0.0000 -0.0000 0.0000 85.9465 -0.0399 23.9010 -13.6707 22.2619 -2.7021 0.0000 -0.0000 -7.4605 -19.9398 9.5826 -3.4560 7.1250 -0.0000 -0.0000 5.0142 -19.8182 3.0287
0.9748 17.9442 -8.8518 -6.4997 -6.9569 8.3186 0.0000 0.0000 0.0000 -14.0095 -0.7356 -13.8451 2.7171 10.2224 29.7001 1.1891 1.6493 -21.2578 0.2223 -3.0350 -8.3762 0.0000 0.0000 0.0000 24.3180 6.4780 -14.0151 -2.4053 -9.6637 27.8944 -0.7253 -1.5939 -16.7404 -0.0215 -0.9462 2.6008 -1.6257 0.6023 -8.8117 4.4005 0.7582 -0.4980 5.6238 0.3011 4.3490 1.3930 0.7504 -15.5976 -5.9995 3.1648 40.5617 -2.4373 0.6294 17.8014 -0.0000 -0.0000 0.0000 -90.0173 -2.5604 29.9593 11.3342 -18.7988 -1.8822 -0.0000 -0.0000 1.4759 10.4287 32.0268 5.5747 -7.1250 0.0000 -0.0000 -25.1212 60.6528 -9.9486 -0.0000 -0.0000 0.0000 85.9303 -0.0928 23.9450 -13.6710 22.2624 -2.7022 0.0000 -0.0000 -7.4392 -19.9832 9.5523 -3.4533 7.1250 -0.0000 -0.0000 4.9828 -19.8473 3.0064
0.9762 17.9441 -8.8531 -6.5069 -6.9531 8.3114 0.0000 0.0000 0.0000 -14.0076 -0.8036 -13.8192 2.7197 10.2269 29.7147 1.1889 1.7141 -21.2841 0.2292 -3.0811 -8.5047 0.0000 0.0000 0.0000 24.3185 6.4757 -14.0140 -2.4067 -9.6662 27.9023 -0.7311 -1.5312 -16.7767 -0.0281 -1.0822 2.9751 -1.6675 0.5665 -8.7059 4.4424 0.7146 -0.5470 5.6833 0.2813 4.2423 1.4094 0.7564 -15.5439 -6.0988 3.2088 40.5664 -2.4786 0.6361 17.7967 0.0000 -0.0000 0.0000 -90.0987 -2.4950 29.6958 11.3989 -18.8971 -1.9031 -0.0000 -0.0000 2.0813 9.5110 32.4246 5.1333 -7.1250 0.0000 -0.0000 -26.4301 60.7867 -10.5939 0.0000 -0.0000 0.0000 85.8777 -0.1225 23.9937 -13.6614 22.2486 -2.6986 0.0000 -0.0000 -7.4104 -19.9834 9.5396 -3.4488 7.1250 -0.0000 -0.0000 4.9826 -19.8606 3.0048
